{"title":"Martyrs 2008 DVDrip English Klam","uid":6183759,"size":1560839602,"categoryP":"video","categoryS":"movies","magnet":"?xt=urn:btih:911e0d95091baa2d0938fefe7085f75fa287eba6&amp;dn=Martyrs+2008+DVDrip+English+Klam&amp;tr=udp%3A%2F%2Ftracker.openbittorrent.com%3A80&amp;tr=udp%3A%2F%2Fopen.demonii.com%3A1337&amp;tr=udp%3A%2F%2Ftracker.coppersurfer.tk%3A6969&amp;tr=udp%3A%2F%2Fexodus.desync.com%3A6969","seeders":2,"leechers":0,"uploader":"Klambake","files":-1,"time":1298047722,"description":"With: Morjana Alaoui, MylÃƒÂ¨ne JampanoÃƒÂ¯ en Catherine BÃƒÂ©gin\n\nFifteen years after a horrifying experience of abduction and prolonged torture, Lucie embarks on a bloody quest for revenge against her oppressors. Along with her childhood friend, Anna, who also suffered abuse, she quickly descends, without hope, into madness and her own delusions. Anna, left on her own begins to re-experience what Lucie did when she was only twelve years old.\n\nGeneral:\n\nComplete name                    : Martyrs\\Martyrs.avi\nFormat                           : AVI\nFormat/Info                      : Audio Video Interleave\nFile size                        : 1.45 GiB\nDuration                         : 1h 35mn\nOverall bit rate                 : 2 183 Kbps\n\nVideo:\n\nFormat                           : MPEG-4 Visual\nFormat profile                   : Simple@L3\nFormat settings, BVOP            : No\nFormat settings, QPel            : No\nFormat settings, GMC             : No warppoints\nFormat settings, Matrix          : Default (H.263)\nCodec ID                         : XVID\nCodec ID/Hint                    : XviD\nDuration                         : 1h 35mn\nBit rate                         : 1 724 Kbps\nWidth                            : 652 pixels\nHeight                           : 352 pixels\nDisplay aspect ratio             : 1.852\nFrame rate                       : 25.000 fps\nColor space                      : YUV\nChroma subsampling               : 4:2:0\nBit depth                        : 8 bits\nScan type                        : Progressive\nBits/(Pixel*Frame)               : 0.300\nStream size                      : 1.15 GiB (79%)\nWriting library                  : XviD 1.1.2 (UTC 2006-11-01)\n\nAudio:\n\nFormat                           : AC-3\nFormat/Info                      : Audio Coding 3\nMode extension                   : CM (complete main)\nCodec ID                         : 2000\nDuration                         : 1h 35mn\nBit rate mode                    : Constant\nBit rate                         : 448 Kbps\nChannel(s)                       : 6 channels\nChannel positions                : Front: L C R, Side: L R, LFE\nSampling rate                    : 48.0 KHz\nBit depth                        : 16 bits\nStream size                      : 305 MiB (21%)\nAlignment                        : Aligned on interleaves\nInterleave, duration             : 32 ms (0.80 video frame)\nInterleave, preload duration     : 544 ms\n","torrent":{"xt":"urn:btih:911e0d95091baa2d0938fefe7085f75fa287eba6","amp;dn":"Martyrs+2008+DVDrip+English+Klam","amp;tr":["udp%3A%2F%2Ftracker.openbittorrent.com%3A80","udp%3A%2F%2Fopen.demonii.com%3A1337","udp%3A%2F%2Ftracker.coppersurfer.tk%3A6969","udp%3A%2F%2Fexodus.desync.com%3A6969"],"infoHash":"911e0d95091baa2d0938fefe7085f75fa287eba6","infoHashBuffer":{"type":"Buffer","data":[145,30,13,149,9,27,170,45,9,56,254,254,112,133,247,95,162,135,235,166]},"announce":[],"urlList":[]}}